<svg width="133" height="133" viewBox="0 0 133 133" fill="none" xmlns="http://www.w3.org/2000/svg">
<path d="M116.375 25.4917V92.1025C110.057 89.8304 103.574 88.6667 96.979 88.6667C86.4498 88.6667 76.0315 91.6592 66.4998 97.4225V30.3683C57.5223 25.2146 47.1594 22.1667 36.0207 22.1667C24.8819 22.1667 14.519 25.2146 5.5415 30.3683V110.833C13.9648 104.294 24.5494 99.75 36.0207 99.75C47.4919 99.75 58.0765 104.294 66.4998 110.833C74.9232 104.294 85.5078 99.75 96.979 99.75C108.45 99.75 119.035 104.294 127.458 110.833V30.3683C123.967 28.3733 120.254 26.8217 116.375 25.4917Z" fill="#C83E4D"/>
<path d="M105.292 2.77083L77.5835 30.4792V83.125L105.292 58.1875V2.77083Z" fill="#C83E4D"/>
</svg>
